{"title":"Black Guy Sucking Boob Milk From A Lactating Asian And Pummels H","uid":10780682,"size":121055977,"categoryP":"porn","categoryS":"other","magnet":"?xt=urn:btih:affb16dd2ed2223e77be793926732820dda1be7b&amp;dn=Black+Guy+Sucking+Boob+Milk+From+A+Lactating+Asian+And+Pummels+H&amp;tr=udp%3A%2F%2Ftracker.openbittorrent.com%3A80&amp;tr=udp%3A%2F%2Fopen.demonii.com%3A1337&amp;tr=udp%3A%2F%2Ftracker.coppersurfer.tk%3A6969&amp;tr=udp%3A%2F%2Fexodus.desync.com%3A6969","seeders":3,"leechers":0,"uploader":"vpsr","files":1,"time":1408157606,"description":"Black Guy Sucking Boob Milk From A Lactating Asian And Pummels Her With His Dick[VPSR].mp4\n\n &lt;a href=&quot;\nhttp://s25.postimg.org/6eyxrk9en/FVS.jpg&quot; rel=&quot;nofollow&quot; target=&quot;_NEW&quot;&gt;\nhttp://s25.postimg.org/6eyxrk9en/FVS.jpg&lt;/a&gt;\n\n &lt;a href=&quot;\nhttp://s25.postimg.org/517aw9a5b/Black_Guy_Sucking_Boob_Milk_From_A_Lactating_Asi.jpg&quot; rel=&quot;nofollow&quot; target=&quot;_NEW&quot;&gt;\nhttp://s25.postimg.org/517aw9a5b/Black_Guy_Sucking_Boob_Milk_From_A_Lactating_Asi.jpg&lt;/a&gt;\n\n\nFILE INFO \n\n\nGeneral\nComplete name                            : Black Guy Sucking Boob Milk From A Lactating Asian And Pummels Her With His Dick[VPSR].mp4\nFormat                                   : MPEG-4\nFormat profile                           : Base Media / Version 2\nCodec ID                                 : mp42\nFile size                                : 115 MiB\nDuration                                 : 28mn 7s\nOverall bit rate mode                    : Variable\nOverall bit rate                         : 574 Kbps\nWriting application                      : mp4creator 1.6.1d\n\nVideo\nID                                       : 1\nFormat                                   : MPEG-4 Visual\nFormat profile                           : Simple@L3\nFormat settings, BVOP                    : No\nFormat settings, QPel                    : No\nFormat settings, GMC                     : No warppoints\nFormat settings, Matrix                  : Default (H.263)\nCodec ID                                 : 20\nDuration                                 : 28mn 7s\nBit rate mode                            : Variable\nBit rate                                 : 525 Kbps\nMaximum bit rate                         : 955 Kbps\nWidth                                    : 640 pixels\nHeight                                   : 480 pixels\nDisplay aspect ratio                     : 4:3\nFrame rate mode                          : Variable\nFrame rate                               : 29.970 fps\nMinimum frame rate                       : 29.960 fps\nMaximum frame rate                       : 29.970 fps\nColor space                              : YUV\nChroma subsampling                       : 4:2:0\nBit depth                                : 8 bits\nScan type                                : Progressive\nCompression mode                         : Lossy\nBits/(Pixel*Frame)                       : 0.057\nStream size                              : 106 MiB (91%)\nLanguage                                 : English\n\nAudio\nID                                       : 2\nFormat                                   : AAC\nFormat/Info                              : Advanced Audio Codec\nFormat profile                           : LC\nCodec ID                                 : 40\nDuration                                 : 28mn 6s\nBit rate mode                            : Variable\nBit rate                                 : 48.0 Kbps\nMaximum bit rate                         : 78.6 Kbps\nChannel(s)                               : 2 channels\nChannel(s)_Original                      : 1 channel\nChannel positions                        : Front: C\nSampling rate                            : 32.0 KHz\nCompression mode                         : Lossy\nStream size                              : 9.43 MiB (8%)\nLanguage                                 : English\n","torrent":{"xt":"urn:btih:affb16dd2ed2223e77be793926732820dda1be7b","amp;dn":"Black+Guy+Sucking+Boob+Milk+From+A+Lactating+Asian+And+Pummels+H","amp;tr":["udp%3A%2F%2Ftracker.openbittorrent.com%3A80","udp%3A%2F%2Fopen.demonii.com%3A1337","udp%3A%2F%2Ftracker.coppersurfer.tk%3A6969","udp%3A%2F%2Fexodus.desync.com%3A6969"],"infoHash":"affb16dd2ed2223e77be793926732820dda1be7b","infoHashBuffer":{"type":"Buffer","data":[175,251,22,221,46,210,34,62,119,190,121,57,38,115,40,32,221,161,190,123]},"announce":[],"urlList":[]}}